<mxfile host="app.diagrams.net" agent="Mozilla/5.0 (Windows NT 10.0; Win64; x64) AppleWebKit/537.36 (KHTML, like Gecko) Chrome/140.0.0.0 Safari/537.36" version="28.2.3">
  <diagram name="PÃ¡gina-1" id="-ZojUDL30IMftM38Al-2">
    <mxGraphModel dx="2454" dy="2043" grid="1" gridSize="10" guides="1" tooltips="1" connect="1" arrows="1" fold="1" page="1" pageScale="1" pageWidth="827" pageHeight="1169" math="0" shadow="0">
      <root>
        <mxCell id="0" />
        <mxCell id="1" parent="0" />
        <mxCell id="kcewk0pyHOu2SsVc2CaJ-1" value="User" style="rounded=0;whiteSpace=wrap;html=1;fontSize=15;strokeWidth=2;fillColor=#fff2cc;strokeColor=#d6b656;" vertex="1" parent="1">
          <mxGeometry x="200" y="242.5" width="120" height="60" as="geometry" />
        </mxCell>
        <mxCell id="kcewk0pyHOu2SsVc2CaJ-68" style="edgeStyle=orthogonalEdgeStyle;rounded=0;orthogonalLoop=1;jettySize=auto;html=1;entryX=0.917;entryY=0.958;entryDx=0;entryDy=0;endArrow=ERone;endFill=0;entryPerimeter=0;exitX=0.5;exitY=0;exitDx=0;exitDy=0;fontSize=15;strokeWidth=2;" edge="1" parent="1" source="kcewk0pyHOu2SsVc2CaJ-69" target="kcewk0pyHOu2SsVc2CaJ-1">
          <mxGeometry relative="1" as="geometry">
            <mxPoint x="460" y="580" as="sourcePoint" />
            <Array as="points">
              <mxPoint x="390" y="470" />
              <mxPoint x="310" y="470" />
            </Array>
          </mxGeometry>
        </mxCell>
        <mxCell id="kcewk0pyHOu2SsVc2CaJ-2" value="Notes" style="rounded=0;whiteSpace=wrap;html=1;fontSize=15;strokeWidth=2;fillColor=#fff2cc;strokeColor=#d6b656;" vertex="1" parent="1">
          <mxGeometry x="650" y="670" width="120" height="60" as="geometry" />
        </mxCell>
        <mxCell id="kcewk0pyHOu2SsVc2CaJ-66" style="edgeStyle=orthogonalEdgeStyle;rounded=0;orthogonalLoop=1;jettySize=auto;html=1;entryX=0.5;entryY=1;entryDx=0;entryDy=0;startArrow=ERmany;startFill=0;endArrow=none;endFill=0;strokeWidth=2;fontSize=15;" edge="1" parent="1" source="kcewk0pyHOu2SsVc2CaJ-3" target="kcewk0pyHOu2SsVc2CaJ-65">
          <mxGeometry relative="1" as="geometry">
            <mxPoint x="-10" y="689.9999999999995" as="targetPoint" />
          </mxGeometry>
        </mxCell>
        <mxCell id="kcewk0pyHOu2SsVc2CaJ-3" value="Task" style="rounded=0;whiteSpace=wrap;html=1;fontSize=15;strokeWidth=2;fillColor=#fff2cc;strokeColor=#d6b656;" vertex="1" parent="1">
          <mxGeometry x="-240" y="670" width="120" height="60" as="geometry" />
        </mxCell>
        <mxCell id="kcewk0pyHOu2SsVc2CaJ-4" value="Label" style="rounded=0;whiteSpace=wrap;html=1;fontSize=15;strokeWidth=2;fillColor=#fff2cc;strokeColor=#d6b656;" vertex="1" parent="1">
          <mxGeometry x="200" y="920" width="120" height="60" as="geometry" />
        </mxCell>
        <mxCell id="kcewk0pyHOu2SsVc2CaJ-15" style="rounded=0;orthogonalLoop=1;jettySize=auto;html=1;endArrow=none;endFill=0;fontSize=15;strokeWidth=2;" edge="1" parent="1" source="kcewk0pyHOu2SsVc2CaJ-5" target="kcewk0pyHOu2SsVc2CaJ-1">
          <mxGeometry relative="1" as="geometry" />
        </mxCell>
        <mxCell id="kcewk0pyHOu2SsVc2CaJ-5" value="&lt;u&gt;id&lt;/u&gt;" style="ellipse;whiteSpace=wrap;html=1;fontSize=15;strokeWidth=2;fillColor=#ffe6cc;strokeColor=#d79b00;" vertex="1" parent="1">
          <mxGeometry x="420" y="110" width="120" height="80" as="geometry" />
        </mxCell>
        <mxCell id="kcewk0pyHOu2SsVc2CaJ-14" style="rounded=0;orthogonalLoop=1;jettySize=auto;html=1;endArrow=none;endFill=0;fontSize=15;strokeWidth=2;" edge="1" parent="1" source="kcewk0pyHOu2SsVc2CaJ-6" target="kcewk0pyHOu2SsVc2CaJ-1">
          <mxGeometry relative="1" as="geometry" />
        </mxCell>
        <mxCell id="kcewk0pyHOu2SsVc2CaJ-6" value="name" style="ellipse;whiteSpace=wrap;html=1;fontSize=15;strokeWidth=2;fillColor=#ffe6cc;strokeColor=#d79b00;" vertex="1" parent="1">
          <mxGeometry x="100" y="40" width="120" height="80" as="geometry" />
        </mxCell>
        <mxCell id="kcewk0pyHOu2SsVc2CaJ-13" style="rounded=0;orthogonalLoop=1;jettySize=auto;html=1;endArrow=none;endFill=0;fontSize=15;strokeWidth=2;" edge="1" parent="1" source="kcewk0pyHOu2SsVc2CaJ-7" target="kcewk0pyHOu2SsVc2CaJ-1">
          <mxGeometry relative="1" as="geometry" />
        </mxCell>
        <mxCell id="kcewk0pyHOu2SsVc2CaJ-7" value="e-mail" style="ellipse;whiteSpace=wrap;html=1;fontSize=15;strokeWidth=2;fillColor=#ffe6cc;strokeColor=#d79b00;" vertex="1" parent="1">
          <mxGeometry x="-10" y="100" width="120" height="80" as="geometry" />
        </mxCell>
        <mxCell id="kcewk0pyHOu2SsVc2CaJ-12" style="rounded=0;orthogonalLoop=1;jettySize=auto;html=1;endArrow=none;endFill=0;fontSize=15;strokeWidth=2;" edge="1" parent="1" source="kcewk0pyHOu2SsVc2CaJ-8" target="kcewk0pyHOu2SsVc2CaJ-1">
          <mxGeometry relative="1" as="geometry" />
        </mxCell>
        <mxCell id="kcewk0pyHOu2SsVc2CaJ-8" value="password" style="ellipse;whiteSpace=wrap;html=1;fontSize=15;strokeWidth=2;fillColor=#ffe6cc;strokeColor=#d79b00;" vertex="1" parent="1">
          <mxGeometry x="390" y="200" width="120" height="80" as="geometry" />
        </mxCell>
        <mxCell id="kcewk0pyHOu2SsVc2CaJ-16" style="rounded=0;orthogonalLoop=1;jettySize=auto;html=1;endArrow=none;endFill=0;fontSize=15;strokeWidth=2;" edge="1" parent="1" source="kcewk0pyHOu2SsVc2CaJ-9" target="kcewk0pyHOu2SsVc2CaJ-1">
          <mxGeometry relative="1" as="geometry" />
        </mxCell>
        <mxCell id="kcewk0pyHOu2SsVc2CaJ-9" value="provider" style="ellipse;whiteSpace=wrap;html=1;fontSize=15;strokeWidth=2;fillColor=#ffe6cc;strokeColor=#d79b00;" vertex="1" parent="1">
          <mxGeometry x="400" y="10" width="120" height="80" as="geometry" />
        </mxCell>
        <mxCell id="kcewk0pyHOu2SsVc2CaJ-18" style="rounded=0;orthogonalLoop=1;jettySize=auto;html=1;endArrow=none;endFill=0;fontSize=15;strokeWidth=2;" edge="1" parent="1" source="kcewk0pyHOu2SsVc2CaJ-10" target="kcewk0pyHOu2SsVc2CaJ-1">
          <mxGeometry relative="1" as="geometry" />
        </mxCell>
        <mxCell id="kcewk0pyHOu2SsVc2CaJ-10" value="creation_date" style="ellipse;whiteSpace=wrap;html=1;fontSize=15;strokeWidth=2;fillColor=#ffe6cc;strokeColor=#d79b00;" vertex="1" parent="1">
          <mxGeometry x="170" y="-60" width="120" height="80" as="geometry" />
        </mxCell>
        <mxCell id="kcewk0pyHOu2SsVc2CaJ-17" style="rounded=0;orthogonalLoop=1;jettySize=auto;html=1;endArrow=none;endFill=0;fontSize=15;strokeWidth=2;" edge="1" parent="1" source="kcewk0pyHOu2SsVc2CaJ-11" target="kcewk0pyHOu2SsVc2CaJ-1">
          <mxGeometry relative="1" as="geometry" />
        </mxCell>
        <mxCell id="kcewk0pyHOu2SsVc2CaJ-11" value="last_login" style="ellipse;whiteSpace=wrap;html=1;fontSize=15;strokeWidth=2;fillColor=#ffe6cc;strokeColor=#d79b00;" vertex="1" parent="1">
          <mxGeometry x="260" y="30" width="120" height="80" as="geometry" />
        </mxCell>
        <mxCell id="kcewk0pyHOu2SsVc2CaJ-30" style="rounded=0;orthogonalLoop=1;jettySize=auto;html=1;endArrow=none;endFill=0;fontSize=15;strokeWidth=2;" edge="1" parent="1" source="kcewk0pyHOu2SsVc2CaJ-20" target="kcewk0pyHOu2SsVc2CaJ-2">
          <mxGeometry relative="1" as="geometry" />
        </mxCell>
        <mxCell id="kcewk0pyHOu2SsVc2CaJ-20" value="&lt;u&gt;id&lt;/u&gt;" style="ellipse;whiteSpace=wrap;html=1;fontSize=15;strokeWidth=2;fillColor=#ffe6cc;strokeColor=#d79b00;" vertex="1" parent="1">
          <mxGeometry x="900" y="800" width="120" height="80" as="geometry" />
        </mxCell>
        <mxCell id="kcewk0pyHOu2SsVc2CaJ-31" style="rounded=0;orthogonalLoop=1;jettySize=auto;html=1;endArrow=none;endFill=0;fontSize=15;strokeWidth=2;" edge="1" parent="1" source="kcewk0pyHOu2SsVc2CaJ-22" target="kcewk0pyHOu2SsVc2CaJ-2">
          <mxGeometry relative="1" as="geometry" />
        </mxCell>
        <mxCell id="kcewk0pyHOu2SsVc2CaJ-22" value="title" style="ellipse;whiteSpace=wrap;html=1;fontSize=15;strokeWidth=2;fillColor=#ffe6cc;strokeColor=#d79b00;" vertex="1" parent="1">
          <mxGeometry x="840" y="690" width="120" height="80" as="geometry" />
        </mxCell>
        <mxCell id="kcewk0pyHOu2SsVc2CaJ-28" style="rounded=0;orthogonalLoop=1;jettySize=auto;html=1;endArrow=none;endFill=0;fontSize=15;strokeWidth=2;" edge="1" parent="1" source="kcewk0pyHOu2SsVc2CaJ-23" target="kcewk0pyHOu2SsVc2CaJ-2">
          <mxGeometry relative="1" as="geometry" />
        </mxCell>
        <mxCell id="kcewk0pyHOu2SsVc2CaJ-23" value="contenct" style="ellipse;whiteSpace=wrap;html=1;fontSize=15;strokeWidth=2;fillColor=#ffe6cc;strokeColor=#d79b00;" vertex="1" parent="1">
          <mxGeometry x="580" y="545" width="120" height="80" as="geometry" />
        </mxCell>
        <mxCell id="kcewk0pyHOu2SsVc2CaJ-33" style="rounded=0;orthogonalLoop=1;jettySize=auto;html=1;endArrow=none;endFill=0;fontSize=15;strokeWidth=2;" edge="1" parent="1" source="kcewk0pyHOu2SsVc2CaJ-24" target="kcewk0pyHOu2SsVc2CaJ-2">
          <mxGeometry relative="1" as="geometry" />
        </mxCell>
        <mxCell id="kcewk0pyHOu2SsVc2CaJ-24" value="labels" style="ellipse;whiteSpace=wrap;html=1;fontSize=15;strokeWidth=2;fillColor=#ffe6cc;strokeColor=#d79b00;" vertex="1" parent="1">
          <mxGeometry x="830" y="560" width="120" height="80" as="geometry" />
        </mxCell>
        <mxCell id="kcewk0pyHOu2SsVc2CaJ-27" style="rounded=0;orthogonalLoop=1;jettySize=auto;html=1;endArrow=none;endFill=0;fontSize=15;strokeWidth=2;" edge="1" parent="1" source="kcewk0pyHOu2SsVc2CaJ-25" target="kcewk0pyHOu2SsVc2CaJ-2">
          <mxGeometry relative="1" as="geometry" />
        </mxCell>
        <mxCell id="kcewk0pyHOu2SsVc2CaJ-25" value="update_date" style="ellipse;whiteSpace=wrap;html=1;fontSize=15;strokeWidth=2;fillColor=#ffe6cc;strokeColor=#d79b00;" vertex="1" parent="1">
          <mxGeometry x="707" y="450" width="133" height="90" as="geometry" />
        </mxCell>
        <mxCell id="kcewk0pyHOu2SsVc2CaJ-32" style="rounded=0;orthogonalLoop=1;jettySize=auto;html=1;endArrow=none;endFill=0;fontSize=15;strokeWidth=2;" edge="1" parent="1" source="kcewk0pyHOu2SsVc2CaJ-26" target="kcewk0pyHOu2SsVc2CaJ-2">
          <mxGeometry relative="1" as="geometry" />
        </mxCell>
        <mxCell id="kcewk0pyHOu2SsVc2CaJ-26" value="creation_date" style="ellipse;whiteSpace=wrap;html=1;fontSize=15;strokeWidth=2;fillColor=#ffe6cc;strokeColor=#d79b00;" vertex="1" parent="1">
          <mxGeometry x="730" y="780" width="120" height="80" as="geometry" />
        </mxCell>
        <mxCell id="kcewk0pyHOu2SsVc2CaJ-35" style="rounded=0;orthogonalLoop=1;jettySize=auto;html=1;endArrow=none;endFill=0;fontSize=15;strokeWidth=2;" edge="1" parent="1" source="kcewk0pyHOu2SsVc2CaJ-34" target="kcewk0pyHOu2SsVc2CaJ-3">
          <mxGeometry relative="1" as="geometry" />
        </mxCell>
        <mxCell id="kcewk0pyHOu2SsVc2CaJ-34" value="&lt;u&gt;id&lt;/u&gt;" style="ellipse;whiteSpace=wrap;html=1;fontSize=15;strokeWidth=2;fillColor=#ffe6cc;strokeColor=#d79b00;" vertex="1" parent="1">
          <mxGeometry x="-50" y="600" width="120" height="80" as="geometry" />
        </mxCell>
        <mxCell id="kcewk0pyHOu2SsVc2CaJ-37" style="rounded=0;orthogonalLoop=1;jettySize=auto;html=1;endArrow=none;endFill=0;fontSize=15;strokeWidth=2;" edge="1" parent="1" source="kcewk0pyHOu2SsVc2CaJ-36" target="kcewk0pyHOu2SsVc2CaJ-3">
          <mxGeometry relative="1" as="geometry" />
        </mxCell>
        <mxCell id="kcewk0pyHOu2SsVc2CaJ-36" value="title" style="ellipse;whiteSpace=wrap;html=1;fontSize=15;strokeWidth=2;fillColor=#ffe6cc;strokeColor=#d79b00;" vertex="1" parent="1">
          <mxGeometry x="-380" y="550" width="120" height="80" as="geometry" />
        </mxCell>
        <mxCell id="kcewk0pyHOu2SsVc2CaJ-39" style="rounded=0;orthogonalLoop=1;jettySize=auto;html=1;endArrow=none;endFill=0;fontSize=15;strokeWidth=2;" edge="1" parent="1" source="kcewk0pyHOu2SsVc2CaJ-38" target="kcewk0pyHOu2SsVc2CaJ-3">
          <mxGeometry relative="1" as="geometry" />
        </mxCell>
        <mxCell id="kcewk0pyHOu2SsVc2CaJ-38" value="description" style="ellipse;whiteSpace=wrap;html=1;fontSize=15;strokeWidth=2;fillColor=#ffe6cc;strokeColor=#d79b00;" vertex="1" parent="1">
          <mxGeometry x="-130" y="505" width="120" height="80" as="geometry" />
        </mxCell>
        <mxCell id="kcewk0pyHOu2SsVc2CaJ-41" style="rounded=0;orthogonalLoop=1;jettySize=auto;html=1;endArrow=none;endFill=0;fontSize=15;strokeWidth=2;" edge="1" parent="1" source="kcewk0pyHOu2SsVc2CaJ-40" target="kcewk0pyHOu2SsVc2CaJ-3">
          <mxGeometry relative="1" as="geometry" />
        </mxCell>
        <mxCell id="kcewk0pyHOu2SsVc2CaJ-40" value="time" style="ellipse;whiteSpace=wrap;html=1;fontSize=15;strokeWidth=2;fillColor=#ffe6cc;strokeColor=#d79b00;" vertex="1" parent="1">
          <mxGeometry x="-520" y="600" width="120" height="80" as="geometry" />
        </mxCell>
        <mxCell id="kcewk0pyHOu2SsVc2CaJ-43" style="rounded=0;orthogonalLoop=1;jettySize=auto;html=1;endArrow=none;endFill=0;fontSize=15;strokeWidth=2;" edge="1" parent="1" source="kcewk0pyHOu2SsVc2CaJ-42" target="kcewk0pyHOu2SsVc2CaJ-3">
          <mxGeometry relative="1" as="geometry" />
        </mxCell>
        <mxCell id="kcewk0pyHOu2SsVc2CaJ-42" value="status" style="ellipse;whiteSpace=wrap;html=1;fontSize=15;strokeWidth=2;fillColor=#ffe6cc;strokeColor=#d79b00;" vertex="1" parent="1">
          <mxGeometry x="-390" y="760" width="120" height="80" as="geometry" />
        </mxCell>
        <mxCell id="kcewk0pyHOu2SsVc2CaJ-45" style="rounded=0;orthogonalLoop=1;jettySize=auto;html=1;endArrow=none;endFill=0;fontSize=15;strokeWidth=2;" edge="1" parent="1" source="kcewk0pyHOu2SsVc2CaJ-44" target="kcewk0pyHOu2SsVc2CaJ-3">
          <mxGeometry relative="1" as="geometry" />
        </mxCell>
        <mxCell id="kcewk0pyHOu2SsVc2CaJ-44" value="&lt;span style=&quot;text-align: left;&quot;&gt;priority&lt;/span&gt;" style="ellipse;whiteSpace=wrap;html=1;strokeWidth=2;fontSize=15;fillColor=#ffe6cc;strokeColor=#d79b00;" vertex="1" parent="1">
          <mxGeometry x="-540" y="730" width="120" height="80" as="geometry" />
        </mxCell>
        <mxCell id="kcewk0pyHOu2SsVc2CaJ-49" style="rounded=0;orthogonalLoop=1;jettySize=auto;html=1;endArrow=none;endFill=0;fontSize=15;strokeWidth=2;" edge="1" parent="1" source="kcewk0pyHOu2SsVc2CaJ-46" target="kcewk0pyHOu2SsVc2CaJ-3">
          <mxGeometry relative="1" as="geometry" />
        </mxCell>
        <mxCell id="kcewk0pyHOu2SsVc2CaJ-46" value="update_date" style="ellipse;whiteSpace=wrap;html=1;fontSize=15;strokeWidth=2;fillColor=#ffe6cc;strokeColor=#d79b00;" vertex="1" parent="1">
          <mxGeometry x="-110" y="760" width="120" height="80" as="geometry" />
        </mxCell>
        <mxCell id="kcewk0pyHOu2SsVc2CaJ-48" style="rounded=0;orthogonalLoop=1;jettySize=auto;html=1;endArrow=none;endFill=0;fontSize=15;strokeWidth=2;" edge="1" parent="1" source="kcewk0pyHOu2SsVc2CaJ-47" target="kcewk0pyHOu2SsVc2CaJ-3">
          <mxGeometry relative="1" as="geometry" />
        </mxCell>
        <mxCell id="kcewk0pyHOu2SsVc2CaJ-47" value="creation_date" style="ellipse;whiteSpace=wrap;html=1;fontSize=15;strokeWidth=2;fillColor=#ffe6cc;strokeColor=#d79b00;" vertex="1" parent="1">
          <mxGeometry x="-340" y="860" width="120" height="80" as="geometry" />
        </mxCell>
        <mxCell id="kcewk0pyHOu2SsVc2CaJ-55" style="rounded=0;orthogonalLoop=1;jettySize=auto;html=1;endArrow=none;endFill=0;fontSize=15;strokeWidth=2;" edge="1" parent="1" source="kcewk0pyHOu2SsVc2CaJ-50" target="kcewk0pyHOu2SsVc2CaJ-4">
          <mxGeometry relative="1" as="geometry" />
        </mxCell>
        <mxCell id="kcewk0pyHOu2SsVc2CaJ-50" value="&lt;u&gt;id&lt;/u&gt;" style="ellipse;whiteSpace=wrap;html=1;fontSize=15;strokeWidth=2;fillColor=#ffe6cc;strokeColor=#d79b00;" vertex="1" parent="1">
          <mxGeometry x="70" y="1070" width="120" height="80" as="geometry" />
        </mxCell>
        <mxCell id="kcewk0pyHOu2SsVc2CaJ-54" style="rounded=0;orthogonalLoop=1;jettySize=auto;html=1;endArrow=none;endFill=0;fontSize=15;strokeWidth=2;" edge="1" parent="1" source="kcewk0pyHOu2SsVc2CaJ-51" target="kcewk0pyHOu2SsVc2CaJ-4">
          <mxGeometry relative="1" as="geometry" />
        </mxCell>
        <mxCell id="kcewk0pyHOu2SsVc2CaJ-51" value="name" style="ellipse;whiteSpace=wrap;html=1;fontSize=15;strokeWidth=2;fillColor=#ffe6cc;strokeColor=#d79b00;" vertex="1" parent="1">
          <mxGeometry x="200" y="1020" width="120" height="80" as="geometry" />
        </mxCell>
        <mxCell id="kcewk0pyHOu2SsVc2CaJ-53" style="rounded=0;orthogonalLoop=1;jettySize=auto;html=1;endArrow=none;endFill=0;fontSize=15;strokeWidth=2;" edge="1" parent="1" source="kcewk0pyHOu2SsVc2CaJ-52" target="kcewk0pyHOu2SsVc2CaJ-4">
          <mxGeometry relative="1" as="geometry" />
        </mxCell>
        <mxCell id="kcewk0pyHOu2SsVc2CaJ-52" value="color" style="ellipse;whiteSpace=wrap;html=1;fontSize=15;strokeWidth=2;fillColor=#ffe6cc;strokeColor=#d79b00;" vertex="1" parent="1">
          <mxGeometry x="330" y="1070" width="120" height="80" as="geometry" />
        </mxCell>
        <mxCell id="kcewk0pyHOu2SsVc2CaJ-56" value="Notifications" style="rounded=0;whiteSpace=wrap;html=1;fontSize=15;strokeWidth=2;fillColor=#fff2cc;strokeColor=#d6b656;" vertex="1" parent="1">
          <mxGeometry x="-240" y="242.5" width="120" height="60" as="geometry" />
        </mxCell>
        <mxCell id="kcewk0pyHOu2SsVc2CaJ-62" style="rounded=0;orthogonalLoop=1;jettySize=auto;html=1;endArrow=none;endFill=0;fontSize=15;strokeWidth=2;" edge="1" parent="1" source="kcewk0pyHOu2SsVc2CaJ-57" target="kcewk0pyHOu2SsVc2CaJ-56">
          <mxGeometry relative="1" as="geometry" />
        </mxCell>
        <mxCell id="kcewk0pyHOu2SsVc2CaJ-57" value="&lt;u&gt;id&lt;/u&gt;" style="ellipse;whiteSpace=wrap;html=1;fontSize=15;strokeWidth=2;fillColor=#ffe6cc;strokeColor=#d79b00;" vertex="1" parent="1">
          <mxGeometry x="-270" y="100" width="120" height="80" as="geometry" />
        </mxCell>
        <mxCell id="kcewk0pyHOu2SsVc2CaJ-61" style="rounded=0;orthogonalLoop=1;jettySize=auto;html=1;endArrow=none;endFill=0;fontSize=15;strokeWidth=2;" edge="1" parent="1" source="kcewk0pyHOu2SsVc2CaJ-58" target="kcewk0pyHOu2SsVc2CaJ-56">
          <mxGeometry relative="1" as="geometry" />
        </mxCell>
        <mxCell id="kcewk0pyHOu2SsVc2CaJ-58" value="message" style="ellipse;whiteSpace=wrap;html=1;fontSize=15;strokeWidth=2;fillColor=#ffe6cc;strokeColor=#d79b00;" vertex="1" parent="1">
          <mxGeometry x="-470" y="90" width="120" height="80" as="geometry" />
        </mxCell>
        <mxCell id="kcewk0pyHOu2SsVc2CaJ-64" style="rounded=0;orthogonalLoop=1;jettySize=auto;html=1;endArrow=none;endFill=0;fontSize=15;strokeWidth=2;" edge="1" parent="1" source="kcewk0pyHOu2SsVc2CaJ-59" target="kcewk0pyHOu2SsVc2CaJ-56">
          <mxGeometry relative="1" as="geometry" />
        </mxCell>
        <mxCell id="kcewk0pyHOu2SsVc2CaJ-59" value="shipping_date" style="ellipse;whiteSpace=wrap;html=1;fontSize=15;strokeWidth=2;fillColor=#ffe6cc;strokeColor=#d79b00;" vertex="1" parent="1">
          <mxGeometry x="-510" y="240" width="120" height="80" as="geometry" />
        </mxCell>
        <mxCell id="kcewk0pyHOu2SsVc2CaJ-63" style="rounded=0;orthogonalLoop=1;jettySize=auto;html=1;endArrow=none;endFill=0;fontSize=15;strokeWidth=2;" edge="1" parent="1" source="kcewk0pyHOu2SsVc2CaJ-60" target="kcewk0pyHOu2SsVc2CaJ-56">
          <mxGeometry relative="1" as="geometry" />
        </mxCell>
        <mxCell id="kcewk0pyHOu2SsVc2CaJ-60" value="read" style="ellipse;whiteSpace=wrap;html=1;fontSize=15;strokeWidth=2;fillColor=#ffe6cc;strokeColor=#d79b00;" vertex="1" parent="1">
          <mxGeometry x="-413" y="320" width="120" height="80" as="geometry" />
        </mxCell>
        <mxCell id="kcewk0pyHOu2SsVc2CaJ-67" style="edgeStyle=orthogonalEdgeStyle;rounded=0;orthogonalLoop=1;jettySize=auto;html=1;endArrow=ERone;endFill=0;exitX=0.5;exitY=0;exitDx=0;exitDy=0;entryX=0.105;entryY=1.006;entryDx=0;entryDy=0;entryPerimeter=0;fontSize=15;strokeWidth=2;" edge="1" parent="1" source="kcewk0pyHOu2SsVc2CaJ-65" target="kcewk0pyHOu2SsVc2CaJ-1">
          <mxGeometry relative="1" as="geometry">
            <mxPoint x="109.99882352941216" y="590.0588235294119" as="sourcePoint" />
            <mxPoint x="250" y="340" as="targetPoint" />
            <Array as="points">
              <mxPoint x="130" y="470" />
              <mxPoint x="213" y="470" />
            </Array>
          </mxGeometry>
        </mxCell>
        <mxCell id="kcewk0pyHOu2SsVc2CaJ-65" value="Possui" style="rhombus;whiteSpace=wrap;html=1;fontSize=15;strokeWidth=2;fillColor=#dae8fc;strokeColor=#6c8ebf;" vertex="1" parent="1">
          <mxGeometry x="90" y="570" width="80" height="80" as="geometry" />
        </mxCell>
        <mxCell id="kcewk0pyHOu2SsVc2CaJ-70" value="" style="edgeStyle=orthogonalEdgeStyle;rounded=0;orthogonalLoop=1;jettySize=auto;html=1;entryX=0.5;entryY=1;entryDx=0;entryDy=0;startArrow=ERmany;startFill=0;endArrow=none;endFill=0;fontSize=15;strokeWidth=2;" edge="1" parent="1" source="kcewk0pyHOu2SsVc2CaJ-2" target="kcewk0pyHOu2SsVc2CaJ-69">
          <mxGeometry relative="1" as="geometry">
            <mxPoint x="770" y="585" as="sourcePoint" />
            <mxPoint x="320" y="288" as="targetPoint" />
          </mxGeometry>
        </mxCell>
        <mxCell id="kcewk0pyHOu2SsVc2CaJ-69" value="Possui" style="rhombus;whiteSpace=wrap;html=1;fontSize=15;strokeWidth=2;fillColor=#dae8fc;strokeColor=#6c8ebf;" vertex="1" parent="1">
          <mxGeometry x="350" y="570" width="80" height="80" as="geometry" />
        </mxCell>
        <mxCell id="kcewk0pyHOu2SsVc2CaJ-72" style="edgeStyle=orthogonalEdgeStyle;rounded=0;orthogonalLoop=1;jettySize=auto;html=1;entryX=0.5;entryY=1;entryDx=0;entryDy=0;endArrow=ERone;endFill=0;fontSize=15;strokeWidth=2;" edge="1" parent="1" source="kcewk0pyHOu2SsVc2CaJ-71" target="kcewk0pyHOu2SsVc2CaJ-1">
          <mxGeometry relative="1" as="geometry" />
        </mxCell>
        <mxCell id="kcewk0pyHOu2SsVc2CaJ-73" style="edgeStyle=orthogonalEdgeStyle;rounded=0;orthogonalLoop=1;jettySize=auto;html=1;endArrow=ERmany;endFill=0;fontSize=15;strokeWidth=2;" edge="1" parent="1" source="kcewk0pyHOu2SsVc2CaJ-71" target="kcewk0pyHOu2SsVc2CaJ-4">
          <mxGeometry relative="1" as="geometry" />
        </mxCell>
        <mxCell id="kcewk0pyHOu2SsVc2CaJ-71" value="Gerencia" style="rhombus;whiteSpace=wrap;html=1;fontSize=15;strokeWidth=2;fillColor=#dae8fc;strokeColor=#6c8ebf;" vertex="1" parent="1">
          <mxGeometry x="220" y="690" width="80" height="80" as="geometry" />
        </mxCell>
        <mxCell id="kcewk0pyHOu2SsVc2CaJ-75" style="edgeStyle=orthogonalEdgeStyle;rounded=0;orthogonalLoop=1;jettySize=auto;html=1;entryX=0;entryY=0.5;entryDx=0;entryDy=0;endArrow=ERmany;endFill=0;fontSize=15;strokeWidth=2;" edge="1" parent="1" source="kcewk0pyHOu2SsVc2CaJ-74" target="kcewk0pyHOu2SsVc2CaJ-4">
          <mxGeometry relative="1" as="geometry" />
        </mxCell>
        <mxCell id="kcewk0pyHOu2SsVc2CaJ-76" style="edgeStyle=orthogonalEdgeStyle;rounded=0;orthogonalLoop=1;jettySize=auto;html=1;entryX=0.5;entryY=1;entryDx=0;entryDy=0;endArrow=ERmany;endFill=0;fontSize=15;strokeWidth=2;" edge="1" parent="1" source="kcewk0pyHOu2SsVc2CaJ-74" target="kcewk0pyHOu2SsVc2CaJ-3">
          <mxGeometry relative="1" as="geometry" />
        </mxCell>
        <mxCell id="kcewk0pyHOu2SsVc2CaJ-74" value="Possui" style="rhombus;whiteSpace=wrap;html=1;fontSize=15;strokeWidth=2;fillColor=#dae8fc;strokeColor=#6c8ebf;" vertex="1" parent="1">
          <mxGeometry x="10" y="830" width="80" height="80" as="geometry" />
        </mxCell>
        <mxCell id="kcewk0pyHOu2SsVc2CaJ-79" style="edgeStyle=orthogonalEdgeStyle;rounded=0;orthogonalLoop=1;jettySize=auto;html=1;entryX=0.5;entryY=1;entryDx=0;entryDy=0;endArrow=ERmany;endFill=0;fontSize=15;strokeWidth=2;" edge="1" parent="1" source="kcewk0pyHOu2SsVc2CaJ-77" target="kcewk0pyHOu2SsVc2CaJ-2">
          <mxGeometry relative="1" as="geometry" />
        </mxCell>
        <mxCell id="kcewk0pyHOu2SsVc2CaJ-77" value="Possui" style="rhombus;whiteSpace=wrap;html=1;fontSize=15;strokeWidth=2;fillColor=#dae8fc;strokeColor=#6c8ebf;" vertex="1" parent="1">
          <mxGeometry x="440" y="830" width="80" height="80" as="geometry" />
        </mxCell>
        <mxCell id="kcewk0pyHOu2SsVc2CaJ-78" style="edgeStyle=orthogonalEdgeStyle;rounded=0;orthogonalLoop=1;jettySize=auto;html=1;entryX=1;entryY=0.5;entryDx=0;entryDy=0;endArrow=ERmany;endFill=0;fontSize=15;strokeWidth=2;" edge="1" parent="1" source="kcewk0pyHOu2SsVc2CaJ-77" target="kcewk0pyHOu2SsVc2CaJ-4">
          <mxGeometry relative="1" as="geometry">
            <mxPoint x="410" y="958" as="targetPoint" />
          </mxGeometry>
        </mxCell>
        <mxCell id="kcewk0pyHOu2SsVc2CaJ-82" style="edgeStyle=orthogonalEdgeStyle;rounded=0;orthogonalLoop=1;jettySize=auto;html=1;endArrow=ERmany;endFill=0;fontSize=15;strokeWidth=2;" edge="1" parent="1" source="kcewk0pyHOu2SsVc2CaJ-80" target="kcewk0pyHOu2SsVc2CaJ-56">
          <mxGeometry relative="1" as="geometry" />
        </mxCell>
        <mxCell id="kcewk0pyHOu2SsVc2CaJ-83" style="edgeStyle=orthogonalEdgeStyle;rounded=0;orthogonalLoop=1;jettySize=auto;html=1;endArrow=ERone;endFill=0;entryX=0;entryY=0.5;entryDx=0;entryDy=0;fontSize=15;strokeWidth=2;" edge="1" parent="1" source="kcewk0pyHOu2SsVc2CaJ-80" target="kcewk0pyHOu2SsVc2CaJ-1">
          <mxGeometry relative="1" as="geometry" />
        </mxCell>
        <mxCell id="kcewk0pyHOu2SsVc2CaJ-80" value="Recebe" style="rhombus;whiteSpace=wrap;html=1;fontSize=15;strokeWidth=2;fillColor=#dae8fc;strokeColor=#6c8ebf;" vertex="1" parent="1">
          <mxGeometry x="-30" y="232.5" width="80" height="80" as="geometry" />
        </mxCell>
        <mxCell id="kcewk0pyHOu2SsVc2CaJ-86" style="edgeStyle=orthogonalEdgeStyle;rounded=0;orthogonalLoop=1;jettySize=auto;html=1;endArrow=ERone;endFill=0;fontSize=15;strokeWidth=2;" edge="1" parent="1" source="kcewk0pyHOu2SsVc2CaJ-81" target="kcewk0pyHOu2SsVc2CaJ-3">
          <mxGeometry relative="1" as="geometry" />
        </mxCell>
        <mxCell id="kcewk0pyHOu2SsVc2CaJ-87" style="edgeStyle=orthogonalEdgeStyle;rounded=0;orthogonalLoop=1;jettySize=auto;html=1;endArrow=ERmany;endFill=0;fontSize=15;strokeWidth=2;" edge="1" parent="1" source="kcewk0pyHOu2SsVc2CaJ-81" target="kcewk0pyHOu2SsVc2CaJ-56">
          <mxGeometry relative="1" as="geometry" />
        </mxCell>
        <mxCell id="kcewk0pyHOu2SsVc2CaJ-81" value="Gera" style="rhombus;whiteSpace=wrap;html=1;fontSize=15;strokeWidth=2;fillColor=#dae8fc;strokeColor=#6c8ebf;" vertex="1" parent="1">
          <mxGeometry x="-220" y="430" width="80" height="80" as="geometry" />
        </mxCell>
      </root>
    </mxGraphModel>
  </diagram>
</mxfile>
